<svg xmlns="http://www.w3.org/2000/svg" width="2015" height="894" fill="none" viewBox="0 0 2015 894"><path fill="#456484" d="M1638.16 28.653H1662.16V52.653H1638.16V28.653Z"/><path fill="#456484" d="M1459.89 62.3395C1460.74 68.9127 1456.09 74.9271 1449.52 75.7731C1442.95 76.6191 1436.93 71.9762 1436.09 65.403C1435.24 58.8298 1439.88 52.8154 1446.46 51.9694C1453.03 51.1234 1459.04 55.7663 1459.89 62.3395Z"/><path fill="#456484" d="M1851.91 13.9017C1852.76 20.4749 1848.12 26.4893 1841.54 27.3353C1834.97 28.1813 1828.96 23.5384 1828.11 16.9652C1827.26 10.392 1831.91 4.3776 1838.48 3.53161C1845.05 2.68563 1851.07 7.32846 1851.91 13.9017Z"/><path fill="#456484" d="M1155.5 439.653H1179.5V463.653H1155.5V439.653Z"/><path fill="#456484" d="M1383.66 461.807C1383.34 468.427 1377.71 473.531 1371.09 473.209C1364.47 472.886 1359.37 467.258 1359.69 460.639C1360.01 454.019 1365.64 448.915 1372.26 449.237C1378.88 449.56 1383.99 455.187 1383.66 461.807Z"/><path fill="#456484" d="M949.09 598.861C952.73 604.399 960.171 605.939 965.709 602.299C971.248 598.659 972.787 591.218 969.147 585.68C965.507 580.142 958.066 578.602 952.528 582.242C946.99 585.882 945.451 593.323 949.09 598.861Z"/><path fill="#C1CCDD" d="M1141.5 452.653V455.153H1141.56L1141.61 455.151L1141.5 452.653ZM1538.59 203.125L1541.07 203.462L1541.07 203.462L1538.59 203.125ZM1759.48 203.125L1757.01 203.54L1757.02 203.584L1757.03 203.627L1759.48 203.125ZM1854.28 666.272L1851.83 666.773L1851.85 666.901L1851.89 667.026L1854.28 666.272ZM1638.16 28.653V26.153H1635.66V28.653H1638.16ZM1662.16 28.653H1664.66V26.153H1662.16V28.653ZM1662.16 52.653V55.153H1664.66V52.653H1662.16ZM1638.16 52.653H1635.66V55.153H1638.16V52.653ZM1155.5 439.653V437.153H1153V439.653H1155.5ZM1179.5 439.653H1182V437.153H1179.5V439.653ZM1179.5 463.653V466.153H1182V463.653H1179.5ZM1155.5 463.653H1153V466.153H1155.5V463.653ZM0 455.153H1141.5V450.153H0V455.153ZM1141.61 455.151C1193.42 452.818 1238.01 479.498 1277.56 510.537C1297.36 526.08 1315.64 542.494 1333.04 556.915C1350.32 571.239 1366.69 583.55 1382.27 590.387C1397.95 597.263 1413.13 598.724 1427.71 590.88C1442.11 583.13 1455.42 566.539 1468.12 538.553C1493.52 482.557 1517.14 379.291 1541.07 203.462L1536.11 202.788C1512.18 378.654 1488.62 481.239 1463.56 536.487C1451.03 564.124 1438.29 579.504 1425.34 586.478C1412.56 593.358 1399.08 592.297 1384.28 585.808C1369.4 579.28 1353.5 567.385 1336.23 553.065C1319.06 538.842 1300.48 522.175 1280.65 506.604C1240.91 475.416 1195.08 447.738 1141.39 450.156L1141.61 455.151ZM1541.07 203.462C1547.74 154.431 1562.27 115.116 1580.81 87.4537C1599.37 59.7574 1621.78 43.9787 1644.2 41.3773C1666.49 38.79 1689.53 49.161 1709.67 75.365C1729.83 101.614 1746.92 143.587 1757.01 203.54L1761.94 202.71C1751.78 142.314 1734.48 99.4561 1713.63 72.3186C1692.74 45.1365 1668.13 33.5668 1643.62 36.4106C1619.23 39.2403 1595.69 56.2646 1576.65 84.6699C1557.59 113.109 1542.86 153.194 1536.11 202.788L1541.07 203.462ZM1757.03 203.627L1851.83 666.773L1856.73 665.771L1761.93 202.624L1757.03 203.627ZM1851.89 667.026C1891.36 791.836 1952.03 855.717 2012.16 893.766L2014.84 889.54C1955.74 852.147 1895.78 789.248 1856.66 665.518L1851.89 667.026ZM1444.46 67.8548L1840.45 18.9064L1839.83 13.9441L1443.84 62.8925L1444.46 67.8548ZM1638.16 31.153H1662.16V26.153H1638.16V31.153ZM1659.66 28.653V52.653H1664.66V28.653H1659.66ZM1662.16 50.153H1638.16V55.153H1662.16V50.153ZM1640.66 52.653V28.653H1635.66V52.653H1640.66ZM1457.41 62.6586C1458.08 67.8623 1454.4 72.6238 1449.2 73.2935L1449.84 78.2526C1457.78 77.2304 1463.39 69.963 1462.37 62.0203L1457.41 62.6586ZM1449.2 73.2935C1444 73.9633 1439.24 70.2877 1438.57 65.0839L1433.61 65.7222C1434.63 73.6648 1441.9 79.2749 1449.84 78.2526L1449.2 73.2935ZM1438.57 65.0839C1437.9 59.8801 1441.57 55.1187 1446.78 54.449L1446.14 49.4899C1438.19 50.5121 1432.58 57.7796 1433.61 65.7222L1438.57 65.0839ZM1446.78 54.449C1451.98 53.7792 1456.74 57.4548 1457.41 62.6586L1462.37 62.0203C1461.35 54.0777 1454.08 48.4676 1446.14 49.4899L1446.78 54.449ZM1849.43 14.2208C1850.1 19.4245 1846.43 24.186 1841.22 24.8557L1841.86 29.8148C1849.81 28.7926 1855.42 21.5252 1854.39 13.5825L1849.43 14.2208ZM1841.22 24.8557C1836.02 25.5255 1831.26 21.8499 1830.59 16.6461L1825.63 17.2844C1826.65 25.227 1833.92 30.8371 1841.86 29.8148L1841.22 24.8557ZM1830.59 16.6461C1829.92 11.4423 1833.6 6.6809 1838.8 6.01116L1838.16 1.05207C1830.22 2.0743 1824.61 9.34176 1825.63 17.2844L1830.59 16.6461ZM1838.8 6.01116C1844 5.34142 1848.76 9.01702 1849.43 14.2208L1854.39 13.5825C1853.37 5.6399 1846.1 0.0298379 1838.16 1.05207L1838.8 6.01116ZM1165.38 453.324L1371.13 463.35L1371.38 458.356L1165.62 448.33L1165.38 453.324ZM1155.5 442.153H1179.5V437.153H1155.5V442.153ZM1177 439.653V463.653H1182V439.653H1177ZM1179.5 461.153H1155.5V466.153H1179.5V461.153ZM1158 463.653V439.653H1153V463.653H1158ZM1381.17 461.685C1380.91 466.926 1376.46 470.967 1371.22 470.712L1370.97 475.706C1378.97 476.096 1385.77 469.927 1386.16 461.929L1381.17 461.685ZM1371.22 470.712C1365.98 470.456 1361.93 466.001 1362.19 460.761L1357.2 460.517C1356.81 468.516 1362.97 475.316 1370.97 475.706L1371.22 470.712ZM1362.19 460.761C1362.44 455.52 1366.9 451.479 1372.14 451.734L1372.38 446.74C1364.39 446.35 1357.58 452.519 1357.2 460.517L1362.19 460.761ZM1372.14 451.734C1377.38 451.99 1381.42 456.445 1381.17 461.685L1386.16 461.929C1386.55 453.93 1380.38 447.13 1372.38 446.74L1372.14 451.734ZM947.001 600.234C951.399 606.926 960.39 608.786 967.082 604.388L964.336 600.21C959.952 603.091 954.061 601.873 951.18 597.488L947.001 600.234ZM967.082 604.388C973.774 599.99 975.634 590.999 971.236 584.307L967.058 587.053C969.939 591.438 968.721 597.328 964.336 600.21L967.082 604.388ZM971.236 584.307C966.838 577.615 957.847 575.755 951.155 580.153L953.901 584.332C958.286 581.45 964.176 582.668 967.058 587.053L971.236 584.307ZM951.155 580.153C944.463 584.551 942.603 593.542 947.001 600.234L951.18 597.488C948.298 593.103 949.516 587.213 953.901 584.332L951.155 580.153ZM1164.03 449.591L954.086 593.59L956.914 597.714L1166.86 453.714L1164.03 449.591Z"/></svg>