<svg xmlns="http://www.w3.org/2000/svg" xmlns:xlink="http://www.w3.org/1999/xlink" id="Ebene_1" x="0" y="0" version="1.1" viewBox="0 0 36.33 10.63" style="enable-background:new 0 0 36.33 10.63" xml:space="preserve"><style type="text/css">.st0{fill:#159aed}.st1{fill:#002f6d}</style><switch><g><g><polygon points="5.31 8.46 4.57 7.71 3.93 7.71 3.93 8.35 4.68 9.09 3.93 9.84 3.93 10.48 4.57 10.48 5.31 9.73 6.06 10.48 6.7 10.48 6.7 9.84 5.95 9.09 6.7 8.35 6.7 7.71 6.06 7.71" class="st0"/><rect width="2.76" height="2.76" x="7.71" y="7.71" class="st0"/><path d="M1.54,7.56C0.69,7.56,0,8.25,0,9.09s0.69,1.54,1.54,1.54c0.85,0,1.54-0.69,1.54-1.54S2.38,7.56,1.54,7.56z" class="st0"/><polygon points="1.54 5.95 2.28 6.7 2.92 6.7 2.92 6.06 2.17 5.31 2.92 4.57 2.92 3.93 2.28 3.93 1.54 4.68 .79 3.93 .15 3.93 .15 4.57 .9 5.31 .15 6.06 .15 6.7 .79 6.7" class="st0"/><rect width="2.76" height="2.76" x="3.93" y=".15" class="st0"/><path d="M9.09,0C8.25,0,7.56,0.69,7.56,1.54s0.69,1.54,1.54,1.54c0.85,0,1.54-0.69,1.54-1.54S9.94,0,9.09,0z" class="st0"/><path d="M15.35,4.5c0.15-0.09,0.32-0.14,0.52-0.14c0.12,0,0.24,0.02,0.36,0.06c0.12,0.04,0.22,0.1,0.33,0.18 c0.1,0.07,0.18,0.16,0.25,0.25l0.56-0.67c-0.16-0.22-0.38-0.39-0.66-0.51c-0.28-0.12-0.59-0.19-0.93-0.19 c-0.36,0-0.69,0.09-0.97,0.26c-0.29,0.17-0.51,0.4-0.68,0.7c-0.16,0.3-0.25,0.63-0.25,1.01c0,0.38,0.08,0.71,0.25,1.01 c0.16,0.3,0.39,0.53,0.68,0.7c0.29,0.17,0.61,0.26,0.97,0.26c0.32,0,0.62-0.06,0.91-0.19c0.29-0.13,0.51-0.29,0.67-0.5 l-0.55-0.67c-0.08,0.1-0.17,0.19-0.27,0.26c-0.1,0.07-0.2,0.12-0.31,0.16C16.12,6.49,16,6.51,15.88,6.51 c-0.19,0-0.36-0.05-0.51-0.14c-0.15-0.1-0.27-0.22-0.36-0.39c-0.09-0.16-0.13-0.34-0.13-0.54c0-0.21,0.04-0.4,0.13-0.56 C15.08,4.72,15.2,4.59,15.35,4.5z" class="st1"/><path d="M20.13,3.47c-0.19,0-0.37,0.05-0.55,0.14s-0.33,0.22-0.45,0.38C19.08,4.04,19.04,4.11,19,4.17l-0.02-0.62 h-0.98v3.78h1.02V5.37c0-0.12,0.02-0.23,0.06-0.33c0.04-0.1,0.1-0.19,0.17-0.26c0.07-0.07,0.16-0.13,0.25-0.17 c0.1-0.04,0.2-0.06,0.32-0.06c0.09,0,0.17,0.01,0.25,0.03c0.08,0.02,0.15,0.05,0.2,0.08l0.27-1.11 c-0.05-0.02-0.12-0.04-0.19-0.05S20.21,3.47,20.13,3.47z" class="st1"/><path d="M22.98,5.78C22.94,5.9,22.91,6,22.87,6.1c-0.01-0.03-0.02-0.06-0.03-0.09c-0.04-0.11-0.07-0.2-0.11-0.28 l-0.92-2.18h-1.15l1.71,3.77l-0.71,1.66h1.03l0.65-1.64l1.59-3.78h-1.16L22.98,5.78z" class="st1"/><path d="M28.52,3.73c-0.26-0.17-0.55-0.25-0.88-0.25c-0.21,0-0.42,0.04-0.61,0.12c-0.2,0.08-0.36,0.19-0.49,0.31 c-0.03,0.03-0.05,0.06-0.07,0.09l-0.02-0.46h-0.98V8.9h1.02v-2c0.01,0.01,0.01,0.02,0.03,0.03c0.14,0.14,0.3,0.25,0.5,0.33 c0.2,0.08,0.41,0.13,0.63,0.13c0.33,0,0.62-0.08,0.88-0.25c0.26-0.17,0.46-0.4,0.61-0.7c0.15-0.3,0.22-0.63,0.22-1.01 c0-0.38-0.07-0.72-0.22-1.01C28.98,4.13,28.78,3.9,28.52,3.73z M28.24,6.01c-0.08,0.16-0.19,0.29-0.34,0.38 c-0.14,0.09-0.31,0.14-0.49,0.14c-0.19,0-0.36-0.05-0.5-0.14c-0.14-0.09-0.25-0.22-0.34-0.38c-0.08-0.16-0.12-0.35-0.12-0.57 c0-0.21,0.04-0.4,0.12-0.57c0.08-0.16,0.19-0.29,0.34-0.38c0.14-0.09,0.31-0.13,0.5-0.13c0.19,0,0.36,0.05,0.5,0.14 c0.14,0.09,0.25,0.22,0.33,0.38c0.08,0.16,0.12,0.35,0.12,0.56C28.37,5.65,28.33,5.84,28.24,6.01z" class="st1"/><polygon points="31.5 2.59 30.48 2.59 30.48 3.55 29.77 3.55 29.77 4.46 30.48 4.46 30.48 7.33 31.5 7.33 31.5 4.46 32.28 4.46 32.28 3.55 31.5 3.55" class="st1"/><rect width="1.01" height="3.78" x="33.02" y="3.55" class="st1"/><rect width="1.01" height="3.78" x="35.21" y="3.55" class="st1"/><path d="M33.52,1.67c-0.34,0-0.62,0.28-0.62,0.62c0,0.34,0.28,0.62,0.62,0.62s0.62-0.28,0.62-0.62 C34.14,1.95,33.86,1.67,33.52,1.67z" class="st1"/><path d="M35.71,2.92c0.34,0,0.62-0.28,0.62-0.62c0-0.34-0.28-0.62-0.62-0.62s-0.62,0.28-0.62,0.62 C35.09,2.64,35.37,2.92,35.71,2.92z" class="st1"/></g></g></switch></svg>